<svg id="Page-1" xmlns="http://www.w3.org/2000/svg" width="50" height="50" viewBox="0 0 50 50">
  <g id="Intsagram">
    <path id="Oval-1" d="M25,0A25,25,0,1,0,50,25,25,25,0,0,0,25,0Zm0,3A22,22,0,1,0,47,25,22,22,0,0,0,25,3ZM35.951,34.51c.019-.1.033-.206.049-.308V15.8c-.015-.1-.029-.2-.047-.3a2.425,2.425,0,0,0-2-1.973c-.041-.006-.082-.015-.123-.023H16.175c-.107.02-.214.035-.319.06a2.441,2.441,0,0,0-1.835,2.085c-.006.043-.014.086-.021.129V34.227c.02.117.036.235.061.351a2.423,2.423,0,0,0,2,1.9c.047.006.094.015.141.023H33.8c.114-.02.229-.037.342-.063A2.439,2.439,0,0,0,35.951,34.51ZM16.38,33.1a.911.911,0,0,0,.874.911H32.742a.91.91,0,0,0,.876-.913q0-5.1,0-10.2v-.071h-2.1a7.5,7.5,0,0,1,.271,3.026,7.246,7.246,0,0,1-.949,2.867,6.994,6.994,0,0,1-2,2.2,6.588,6.588,0,0,1-7.172.323,6.844,6.844,0,0,1-2.657-2.8,7.431,7.431,0,0,1-.533-5.618H16.38v.062Q16.38,27.993,16.38,33.1ZM24.9,29.658a4.667,4.667,0,1,0-4.356-4.729A4.562,4.562,0,0,0,24.9,29.658Zm8.72-11.177q0-1.089,0-2.178a.909.909,0,0,0-.892-.936H30.648a.912.912,0,0,0-.892.937c0,.72,0,1.44,0,2.16a1.087,1.087,0,0,0,.053.321.889.889,0,0,0,.871.62h1c.362,0,.725,0,1.087-.006A.9.9,0,0,0,33.618,18.482Zm0,0" fill="#fff" fill-rule="evenodd"/>
  </g>
</svg>
