<svg id="Page-1" xmlns="http://www.w3.org/2000/svg" width="50" height="50" viewBox="0 0 50 50">
  <g id="Twitter">
    <path id="Oval-1" d="M25,50A25,25,0,1,0,0,25,25,25,0,0,0,25,50Zm0-3A22,22,0,1,0,3,25,22,22,0,0,0,25,47Zm-.318-26.446.048.822-.795-.1a12.723,12.723,0,0,1-7.567-3.891l-1.049-1.09-.27.805a5,5,0,0,0,.986,4.964c.636.7.493.805-.6.386-.382-.134-.715-.235-.747-.184a6.23,6.23,0,0,0,.572,2.247,5.237,5.237,0,0,0,2.178,2.147l.779.386-.922.017c-.89,0-.922.017-.827.369a4.888,4.888,0,0,0,2.973,2.751l.986.352-.858.537a8.66,8.66,0,0,1-4.26,1.241,4.516,4.516,0,0,0-1.3.134,11.871,11.871,0,0,0,3.068,1.476A12.917,12.917,0,0,0,27.5,32.68a14.431,14.431,0,0,0,5.293-6.507,17.963,17.963,0,0,0,1.081-5.031c0-.771.048-.872.938-1.795a10.806,10.806,0,0,0,1.113-1.292c.159-.319.143-.319-.668-.034-1.351.5-1.542.436-.874-.319a4.92,4.92,0,0,0,1.081-1.795c0-.05-.238.033-.509.184a8.64,8.64,0,0,1-1.4.57l-.858.285-.779-.553a6.373,6.373,0,0,0-1.351-.738,5.206,5.206,0,0,0-2.782.067,4.806,4.806,0,0,0-3.1,4.83Zm0,0" fill="#fff" fill-rule="evenodd"/>
  </g>
</svg>
