<?xml version="1.0" ?><svg viewBox="0 0 24 24" xmlns="http://www.w3.org/2000/svg"><title/><g id="calendar"><path d="M20.5,4H18V2.5a.5.5,0,0,0-1,0V4H7V2.5a.5.5,0,0,0-1,0V4H3.5A1.5,1.5,0,0,0,2,5.5v15A1.5,1.5,0,0,0,3.5,22h17A1.5,1.5,0,0,0,22,20.5V5.5A1.5,1.5,0,0,0,20.5,4ZM21,20.5a.5.5,0,0,1-.5.5H3.5a.5.5,0,0,1-.5-.5V5.5A.5.5,0,0,1,3.5,5H6v.5a.5.5,0,0,0,1,0V5H17v.5a.5.5,0,0,0,1,0V5h2.5a.5.5,0,0,1,.5.5Z"/><path d="M8.5,8h-3a.5.5,0,0,0-.5.5v3a.5.5,0,0,0,.5.5h3a.5.5,0,0,0,.5-.5v-3A.5.5,0,0,0,8.5,8ZM8,11H6V9H8Z"/><path d="M18.5,8h-3a.5.5,0,0,0-.5.5v3a.5.5,0,0,0,.5.5h3a.5.5,0,0,0,.5-.5v-3A.5.5,0,0,0,18.5,8ZM18,11H16V9h2Z"/><path d="M13.5,8h-3a.5.5,0,0,0-.5.5v3a.5.5,0,0,0,.5.5h3a.5.5,0,0,0,.5-.5v-3A.5.5,0,0,0,13.5,8ZM13,11H11V9h2Z"/><path d="M8.5,15h-3a.5.5,0,0,0-.5.5v3a.5.5,0,0,0,.5.5h3a.5.5,0,0,0,.5-.5v-3A.5.5,0,0,0,8.5,15ZM8,18H6V16H8Z"/><path d="M18.5,15h-3a.5.5,0,0,0-.5.5v3a.5.5,0,0,0,.5.5h3a.5.5,0,0,0,.5-.5v-3A.5.5,0,0,0,18.5,15ZM18,18H16V16h2Z"/><path d="M13.5,15h-3a.5.5,0,0,0-.5.5v3a.5.5,0,0,0,.5.5h3a.5.5,0,0,0,.5-.5v-3A.5.5,0,0,0,13.5,15ZM13,18H11V16h2Z"/></g></svg>